
<svg xmlns="http://www.w3.org/2000/svg"
     class="svg-snoweb svg-theme-light"
     x="0"
     y="0"
     width="100%"
     height="100%"
     viewBox="0 0 100 100"
     preserveAspectRatio="xMidYMid meet"
>
<defs>
    <style>
        
            
            
            
        

        .svg-fill-primary {
            fill: #090D49;
        }

        .svg-fill-secondary {
            fill: #65CDAE;
        }

        .svg-fill-tertiary {
            fill: #E5E7EB;
        }

        .svg-stroke-primary {
            stroke: #090D49;
        }

        .svg-stroke-secondary {
            stroke: #65CDAE;
        }

        .svg-stroke-tertiary {
            stroke: #E5E7EB;
        }
    </style>
</defs>
    

<clipPath id="clip-path-202406-2713-1031-79d21b45-e59f-4e74-8038-2842df716d03">
    <circle cx="50" cy="50" r="50"></circle>
</clipPath>

<circle 
        class="svg-fill-tertiary"
        cx="50"
        cy="50"
        r="50">
</circle>
<circle 
        class="svg-fill-secondary svg-builder-circle"
        cx="50"
        cy="50"
        r="50">
</circle>

    <g transform="translate(20.00, 20.00) scale(0.60, 0.60)">
        
    <path d="M58.8,41.7H78.6a8.3,8.3,0,0,1,7.4,12L71.5,82.8a8.3,8.3,0,0,1-7.4,4.6H47.4l-2.1-.2L29.7,83.3M58.8,41.7V20.9a8.3,8.3,0,0,0-8.3-8.3h-.4a3.8,3.8,0,0,0-3.8,3.7,15.6,15.6,0,0,1-2.5,8.4L29.7,45.8V83.3M58.8,41.7H50.5M29.7,83.3H21.4a8.4,8.4,0,0,1-8.3-8.4V50a8.3,8.3,0,0,1,8.3-8.3H31.8"
      fill="none" class="svg-stroke-primary" stroke-linecap="round" stroke-linejoin="round" stroke-width="8"/>


    </g>
</svg>